<?xml version="1.0" encoding="iso-8859-1"?>
<!-- Generator: Adobe Illustrator 19.0.0, SVG Export Plug-In . SVG Version: 6.00 Build 0)  -->
<svg version="1.1" id="Capa_1" xmlns="http://www.w3.org/2000/svg" xmlns:xlink="http://www.w3.org/1999/xlink" x="0px" y="0px"
	 viewBox="0 0 491.83 491.83" style="enable-background:new 0 0 491.83 491.83;" xml:space="preserve">
<circle style="fill:#4FBF9F;" cx="245.915" cy="245.915" r="245.915"/>
<polygon style="fill:#FDBF5E;" points="113.261,370.812 76.8,482.521 128.776,482.521 165.236,370.812 "/>
<path style="fill:#193651;" d="M128.776,490.279H76.8c-2.327,0-5.43-1.551-6.982-3.103c-1.552-2.327-2.327-4.655-0.776-6.982
	l37.236-110.933c0.776-3.103,3.879-5.43,7.758-5.43h51.976c2.327,0,5.43,1.552,6.982,3.103c1.552,2.327,2.327,4.655,0.776,6.982
	l-37.236,110.933C134.982,487.952,131.879,490.279,128.776,490.279z M87.661,473.988h34.909l31.806-94.642h-34.909L87.661,473.988z"
	/>
<rect x="221.091" y="67.491" style="fill:#FDBF5E;" width="51.976" height="415.03"/>
<path style="fill:#193651;" d="M273.067,59.733h-51.976c-4.655,0-8.533,3.879-8.533,8.533v415.03c0,4.655,3.879,8.533,8.533,8.533
	h51.976c4.655,0,8.533-3.879,8.533-8.533V67.491C280.824,62.836,276.945,59.733,273.067,59.733z M264.533,473.988h-35.685V76.024
	h35.685V473.988z"/>
<polygon style="fill:#FDBF5E;" points="328.145,370.812 365.382,482.521 417.358,482.521 380.121,370.812 "/>
<path style="fill:#193651;" d="M417.358,490.279h-51.976c-3.879,0-6.982-2.327-7.758-5.43l-37.236-110.933
	c-0.776-2.327-0.776-5.43,0.776-6.982c1.552-2.327,3.879-3.103,6.982-3.103h51.976c3.879,0,6.982,2.327,7.758,5.43l37.236,110.933
	c0.776,2.327,0.776,5.43-0.776,6.982C422.012,489.503,419.685,490.279,417.358,490.279z M370.812,473.988h34.909l-31.806-94.642
	h-34.909L370.812,473.988z"/>
<path style="fill:#FFFFFF;" d="M424.339,100.848H68.267c-14.739,0-26.376,11.636-26.376,26.376v217.988
	c0,14.739,11.636,26.376,26.376,26.376h356.073c14.739,0,26.376-11.636,26.376-26.376V126.448
	C450.715,112.485,438.303,100.848,424.339,100.848z"/>
<path style="fill:#193651;" d="M424.339,92.315H68.267c-19.394,0-34.133,15.515-34.133,34.133v217.988
	c0,19.394,15.515,34.133,34.133,34.133h356.073c19.394,0,34.133-15.515,34.133-34.133V126.448
	C458.473,107.83,442.958,92.315,424.339,92.315z M442.182,344.436c0,10.085-7.758,17.842-17.842,17.842H68.267
	c-10.085,0-17.842-7.758-17.842-17.842V126.448c0-10.085,7.758-17.842,17.842-17.842h356.073c10.085,0,17.842,7.758,17.842,17.842
	V344.436z"/>
<rect x="75.248" y="133.43" style="fill:#E1E6E9;" width="342.885" height="204.8"/>
<g>
	<rect x="178.424" y="149.721" style="fill:#193651;" width="16.291" height="16.291"/>
	<rect x="238.158" y="149.721" style="fill:#193651;" width="16.291" height="16.291"/>
	<rect x="297.891" y="149.721" style="fill:#193651;" width="16.291" height="16.291"/>
	<rect x="178.424" y="305.648" style="fill:#193651;" width="16.291" height="16.291"/>
	<rect x="238.158" y="305.648" style="fill:#193651;" width="16.291" height="16.291"/>
	<rect x="297.891" y="305.648" style="fill:#193651;" width="16.291" height="16.291"/>
	<path style="fill:#193651;" d="M140.412,255.224l-6.982,16.291h-13.188l31.806-72.145h13.188l31.806,72.145h-13.188l-6.982-16.291
		H140.412z M171.442,243.588l-13.188-29.479l-13.188,29.479H171.442z"/>
	<path style="fill:#193651;" d="M253.673,271.515h-31.806V199.37h27.927c4.655,0,9.309,0.776,12.412,1.552
		c3.879,1.552,6.206,3.103,7.758,4.655c3.103,3.879,4.655,7.758,4.655,12.412c0,5.43-1.552,10.085-5.43,12.412
		c-1.552,0.776-2.327,1.552-2.327,1.552c-0.776,0-1.552,0.776-2.327,1.552c4.655,0.776,7.758,3.103,10.861,6.206
		c2.327,3.103,3.879,6.982,3.879,11.636c0,4.655-1.552,9.309-5.43,13.188C270.739,269.188,263.758,271.515,253.673,271.515z
		 M234.279,229.624h15.515c8.533,0,13.188-3.103,13.188-9.309c0-3.103-0.776-6.206-3.103-7.758
		c-2.327-1.552-5.43-2.327-10.085-2.327h-15.515V229.624z M234.279,259.879h19.394c4.655,0,7.758-0.776,10.085-2.327
		c2.327-1.552,3.879-3.879,3.879-7.758c0-6.206-5.43-9.309-15.515-9.309h-17.842V259.879z"/>
	<path style="fill:#193651;" d="M343.661,260.655c3.879,0,7.758-0.776,10.861-2.327c3.103-1.552,6.206-3.879,9.309-6.982
		l7.758,7.758c-7.758,8.533-17.067,12.412-27.927,12.412c-10.861,0-20.17-3.879-27.152-10.861
		c-6.982-6.982-10.861-16.291-10.861-26.376c0-10.861,3.879-19.394,10.861-27.152c6.982-6.982,16.291-10.861,27.927-10.861
		c10.861,0,20.17,3.879,27.927,12.412l-7.758,8.533c-3.103-3.103-6.982-5.43-10.085-6.982c-3.103-1.552-6.982-2.327-10.861-2.327
		c-6.982,0-13.188,2.327-18.618,6.982c-4.655,4.655-7.758,10.861-7.758,17.842c0,6.982,2.327,13.188,7.758,18.618
		C330.473,258.327,336.679,260.655,343.661,260.655z"/>
</g>
<g>
</g>
<g>
</g>
<g>
</g>
<g>
</g>
<g>
</g>
<g>
</g>
<g>
</g>
<g>
</g>
<g>
</g>
<g>
</g>
<g>
</g>
<g>
</g>
<g>
</g>
<g>
</g>
<g>
</g>
</svg>
